nColumns=19
nRows=123
DataType=double
version=3
OpenSimVersion=4.1
endheader
time	ground_force_1_vx	ground_force_1_vy	ground_force_1_vz	ground_force_1_px	ground_force_1_py	ground_force_1_pz	ground_force_1_mx	ground_force_1_my	ground_force_1_mz	ground_force_2_vx	ground_force_2_vy	ground_force_2_vz	ground_force_2_px	ground_force_2_py	ground_force_2_pz	ground_force_2_mx	ground_force_2_my	ground_force_2_mz
0.08	0	0	0	0	0	0	0	0	0	99.2086	1854.26	-33.5273	0.948283	0	-0.395332	0	-18.9839	0
0.09	0	0	0	0	0	0	0	0	0	157.818	1756.64	-49.9631	0.926805	0	-0.395991	0	-5.29665	0
0.1	0	0	0	0	0	0	0	0	0	220.924	1587.84	-64.7038	0.893299	0	-0.395524	-0	6.52797	-0
0.11	0	0	0	0	0	0	0	0	0	268.389	1359.79	-72.3224	0.85398	0	-0.394882	-0	14.6434	-0
0.12	0	0	0	0	0	0	0	0	0	290.026	1098.64	-71.5155	0.81426	0	-0.394458	-0	18.2371	-0
0.13	0	0	0	0	0	0	0	0	0	280.723	831.483	-63.0701	0.776624	0	-0.393773	-0	17.6565	-0
0.14	0	0	0	0	0	0	0	0	0	242.753	580.576	-50.8245	0.740622	0	-0.393744	-0	14.1249	-0
0.15	0	0	0	0	0	0	0	0	0	184.483	366.896	-38.2758	0.70504	0	-0.394998	-0	9.22994	-0
0.16	0	0	0	0	0	0	0	0	0	119.202	204.185	-26.4971	0.669503	0	-0.395271	-0	4.42171	-0
0.17	0	0	0	0	0	0	0	0	0	62.2082	94.858	-16.7509	0.632547	0	-0.393506	-0	0.687662	-0
0.18	0	0	0	0	0	0	0	0	0	24.8527	34.5211	-10.0808	0.611555	0	-0.391505	0	-1.55144	0
0.19	0	0	0	0	0	0	0	0	0	8.24693	11.356	-5.60994	0.725782	0	-0.346122	0	-2.3586	0
0.2	0	0	0	0	0	0	0	0	0	0	0	0	0	0	0	0	0	0
0.21	0	0	0	0	0	0	0	0	0	0	0	0	0	0	0	0	0	0
0.22	0	0	0	0	0	0	0	0	0	0	0	0	0	0	0	0	0	0
0.23	0	0	0	0	0	0	0	0	0	0	0	0	0	0	0	0	0	0
0.24	0	0	0	0	0	0	0	0	0	0	0	0	0	0	0	0	0	0
0.25	0	0	0	0	0	0	0	0	0	0	0	0	0	0	0	0	0	0
0.26	-2.21147	20.4385	-8.26518	1.19294	0	-0.382328	-0	4.28257	-0	0	0	0	0	0	0	0	0	0
0.27	-13.0354	81.3573	-11.5813	1.23945	0	-0.412752	-0	4.43284	-0	0	0	0	0	0	0	0	0	0
0.28	-28.6764	261.779	-10.8793	1.25737	0	-0.419071	-0	3.7172	-0	0	0	0	0	0	0	0	0	0
0.29	-40.4801	612.979	-0.368407	1.25263	0	-0.415685	-0	2.10313	-0	0	0	0	0	0	0	0	0	0
0.3	-58.4768	1025.9	17.6995	1.23796	0	-0.412153	0	-0.077019	0	0	0	0	0	0	0	0	0	0
0.31	-101.42	1298.35	29.6739	1.22137	0	-0.411811	0	-2.22838	0	0	0	0	0	0	0	0	0	0
0.32	-154.365	1387.8	28.2499	1.202	0	-0.41245	0	-3.81235	0	0	0	0	0	0	0	0	0	0
0.33	-193.975	1433.38	18.3986	1.1763	0	-0.41178	0	-4.63617	0	0	0	0	0	0	0	0	0	0
0.34	-208.419	1550.8	7.13819	1.14766	0	-0.410684	0	-4.91122	0	0	0	0	0	0	0	0	0	0
0.35	-186.566	1711.37	0.700845	1.11701	0	-0.409642	0	-5.08495	0	0	0	0	0	0	0	0	0	0
0.36	-141.373	1839.55	1.05444	1.08378	0	-0.409241	0	-5.58222	0	0	0	0	0	0	0	0	0	0
0.37	-82.716	1902.87	6.5911	1.04851	0	-0.409249	0	-6.6117	0	0	0	0	0	0	0	0	0	0
0.38	-19.3935	1903.19	15.4332	1.01301	0	-0.409639	0	-8.1048	0	0	0	0	0	0	0	0	0	0
0.39	47.2275	1844	27.0146	0.977904	0	-0.410656	0	-9.7553	0	0	0	0	0	0	0	0	0	0
0.4	117.414	1729.11	40.8856	0.941974	0	-0.412176	0	-11.1056	0	0	0	0	0	0	0	0	0	0
0.41	190.01	1563.78	54.4025	0.90441	0	-0.413963	0	-11.661	0	0	0	0	0	0	0	0	0	0
0.42	247.223	1352.51	63.7152	0.865547	0	-0.415517	0	-11.0363	0	0	0	0	0	0	0	0	0	0
0.43	272.027	1105	65.3586	0.826544	0	-0.416791	0	-9.10994	0	0	0	0	0	0	0	0	0	0
0.44	264.717	839.911	58.6894	0.787753	0	-0.418152	0	-6.11936	0	0	0	0	0	0	0	0	0	0
0.45	233.407	586.578	46.668	0.750758	0	-0.419497	0	-2.62519	0	0	0	0	0	0	0	0	0	0
0.46	185.641	372.17	33.4092	0.718966	0	-0.41946	-0	0.667089	-0	0	0	0	0	0	0	0	0	0
0.47	129.137	208.964	21.2816	0.690149	0	-0.416866	-0	3.15066	-0	0	0	0	0	0	0	0	0	0
0.48	71.3712	99.8094	11.095	0.657219	0	-0.411682	-0	4.51089	-0	0	0	0	0	0	0	0	0	0
0.49	27.9704	39.5497	3.87181	0.633626	0	-0.396342	-0	4.79465	-0	0	0	0	0	0	0	0	0	0
0.5	5.83537	13.0409	0.274651	0.71857	0	-0.336651	-0	4.34638	-0	0	0	0	0	0	0	0	0	0
0.51	0	0	0	0	0	0	0	0	0	0	0	0	0	0	0	0	0	0
0.52	0	0	0	0	0	0	0	0	0	0	0	0	0	0	0	0	0	0
0.53	0	0	0	0	0	0	0	0	0	0	0	0	0	0	0	0	0	0
0.54	0	0	0	0	0	0	0	0	0	0	0	0	0	0	0	0	0	0
0.55	0	0	0	0	0	0	0	0	0	0	0	0	0	0	0	0	0	0
0.56	0	0	0	0	0	0	0	0	0	0	0	0	0	0	0	0	0	0
0.57	0	0	0	0	0	0	0	0	0	-6.04808	17.1843	-4.51404	1.22237	0	-0.42929	-0	0.701844	-0
0.58	0	0	0	0	0	0	0	0	0	-22.1427	75.0369	-4.75081	1.28823	0	-0.446304	0	-1.92629	0
0.59	0	0	0	0	0	0	0	0	0	-58.466	249.624	0.173979	1.28572	0	-0.443659	0	-5.35672	0
0.6	0	0	0	0	0	0	0	0	0	-104.005	605.665	12.1608	1.27601	0	-0.438308	0	-8.88902	0
0.61	0	0	0	0	0	0	0	0	0	-148.774	1068.42	23.8942	1.26375	0	-0.434808	0	-11.578	0
0.62	0	0	0	0	0	0	0	0	0	-198.334	1409.5	23.0132	1.25061	0	-0.434759	0	-12.6053	0
0.63	0	0	0	0	0	0	0	0	0	-243.585	1546.09	9.9794	1.23267	0	-0.436051	0	-11.6171	0
0.64	0	0	0	0	0	0	0	0	0	-273.133	1651.2	-3.50381	1.20504	0	-0.435969	0	-8.7825	0
0.65	0	0	0	0	0	0	0	0	0	-265.962	1820.78	-13.4364	1.17277	0	-0.434291	0	-4.60017	0
0.66	0	0	0	0	0	0	0	0	0	-223.845	1980.36	-23.3123	1.14068	0	-0.432611	-0	0.314365	-0
0.67	0	0	0	0	0	0	0	0	0	-169.705	2059.69	-33.5659	1.1086	0	-0.431598	-0	5.34386	-0
0.68	0	0	0	0	0	0	0	0	0	-102.381	2060.31	-42.4341	1.07541	0	-0.430731	-0	9.93052	-0
0.69	0	0	0	0	0	0	0	0	0	-25.6652	2000.34	-50.19	1.04095	0	-0.429519	-0	13.6248	-0
0.7	0	0	0	0	0	0	0	0	0	51.549	1884.89	-57.3913	1.00532	0	-0.427863	-0	16.1185	-0
0.71	0	0	0	0	0	0	0	0	0	125.846	1712.89	-62.4368	0.968025	0	-0.426057	-0	17.2629	-0
0.72	0	0	0	0	0	0	0	0	0	190.368	1485.12	-64.1072	0.928909	0	-0.424629	-0	17.074	-0
0.73	0	0	0	0	0	0	0	0	0	233.486	1216.1	-63.2501	0.889768	0	-0.424113	-0	15.712	-0
0.74	0	0	0	0	0	0	0	0	0	243.727	932.089	-59.9605	0.852236	0	-0.424329	-0	13.4399	-0
0.75	0	0	0	0	0	0	0	0	0	221.262	660.239	-53.4488	0.816201	0	-0.424851	-0	10.5879	-0
0.76	0	0	0	0	0	0	0	0	0	174.485	423.72	-43.9352	0.78121	0	-0.426275	-0	7.5306	-0
0.77	0	0	0	0	0	0	0	0	0	117.42	240.065	-32.3512	0.746422	0	-0.428624	-0	4.65587	-0
0.78	0	0	0	0	0	0	0	0	0	64.9448	115.402	-20.667	0.71124	0	-0.429272	-0	2.30816	-0
0.79	0	0	0	0	0	0	0	0	0	28.2602	44.4227	-11.7819	0.686311	0	-0.425588	-0	0.712239	-0
0.8	0	0	0	0	0	0	0	0	0	10.3908	13.8172	-6.49406	0.744272	0	-0.40325	0	-0.089211	0
0.81	0	0	0	0	0	0	0	0	0	0	0	0	0	0	0	0	0	0
0.82	0	0	0	0	0	0	0	0	0	0	0	0	0	0	0	0	0	0
0.83	0	0	0	0	0	0	0	0	0	0	0	0	0	0	0	0	0	0
0.84	0	0	0	0	0	0	0	0	0	0	0	0	0	0	0	0	0	0
0.85	0	0	0	0	0	0	0	0	0	0	0	0	0	0	0	0	0	0
0.86	0	0	0	0	0	0	0	0	0	0	0	0	0	0	0	0	0	0
0.87	0	0	0	0	0	0	0	0	0	0	0	0	0	0	0	0	0	0
0.88	-2.38846	10.6326	-5.46608	1.00926	0	-0.334126	-0	2.99701	-0	0	0	0	0	0	0	0	0	0
0.89	-10.3044	35.2527	-9.49625	1.20893	0	-0.427831	-0	3.80873	-0	0	0	0	0	0	0	0	0	0
0.9	-25.7508	129.397	-13.4935	1.29103	0	-0.446992	-0	4.25879	-0	0	0	0	0	0	0	0	0	0
0.91	-50.2902	370.407	-11.1499	1.29873	0	-0.443694	-0	3.96441	-0	0	0	0	0	0	0	0	0	0
0.92	-84.2311	761.401	2.01327	1.28672	0	-0.437602	-0	2.74247	-0	0	0	0	0	0	0	0	0	0
0.93	-137.037	1147.14	18.134	1.27158	0	-0.435284	-0	0.728401	-0	0	0	0	0	0	0	0	0	0
0.94	-201.371	1363.89	26.2378	1.25593	0	-0.436662	0	-1.71846	0	0	0	0	0	0	0	0	0	0
0.95	-250.261	1444.73	26.9542	1.2356	0	-0.438099	0	-4.22694	0	0	0	0	0	0	0	0	0	0
0.96	-278.595	1539.75	25.9142	1.20937	0	-0.438141	0	-6.56009	0	0	0	0	0	0	0	0	0	0
0.97	-272.88	1687.42	26.9486	1.17901	0	-0.437411	0	-8.63481	0	0	0	0	0	0	0	0	0	0
0.98	-235.937	1825.53	31.4297	1.14529	0	-0.436719	0	-10.4599	0	0	0	0	0	0	0	0	0	0
0.99	-182.587	1904.81	38.0974	1.10941	0	-0.436501	0	-12.058	0	0	0	0	0	0	0	0	0	0
1	-115.884	1916.81	45.7301	1.07251	0	-0.436742	0	-13.4094	0	0	0	0	0	0	0	0	0	0
1.01	-37.9104	1870.02	54.5514	1.03596	0	-0.437415	0	-14.4132	0	0	0	0	0	0	0	0	0	0
1.02	45.7083	1768.55	64.8562	0.998812	0	-0.438388	0	-14.8623	0	0	0	0	0	0	0	0	0	0
1.03	127.769	1612.31	74.6217	0.960417	0	-0.439585	0	-14.4622	0	0	0	0	0	0	0	0	0	0
1.04	193.774	1404.24	80.4704	0.921473	0	-0.440626	0	-12.9299	0	0	0	0	0	0	0	0	0	0
1.05	231.431	1154.24	79.1694	0.882981	0	-0.441316	0	-10.1587	0	0	0	0	0	0	0	0	0	0
1.06	242.016	882.446	68.6761	0.845343	0	-0.441956	0	-6.37145	0	0	0	0	0	0	0	0	0	0
1.07	230.313	619.799	50.755	0.809249	0	-0.44303	0	-2.15412	0	0	0	0	0	0	0	0	0	0
1.08	194.594	396.687	32.0004	0.776209	0	-0.44333	-0	1.69898	-0	0	0	0	0	0	0	0	0	0
1.09	139.948	228.429	17.8672	0.746069	0	-0.438851	-0	4.47896	-0	0	0	0	0	0	0	0	0	0
1.1	80.0618	113.326	8.15978	0.711114	0	-0.430746	-0	5.82671	-0	0	0	0	0	0	0	0	0	0
1.11	33.4296	45.107	1.82296	0.661665	0	-0.427638	-0	5.82592	-0	0	0	0	0	0	0	0	0	0
1.12	9.0417	14.3541	-0.530941	0.677664	0	-0.407918	-0	4.91808	-0	0	0	0	0	0	0	0	0	0
1.13	0	0	0	0	0	0	0	0	0	0	0	0	0	0	0	0	0	0
1.14	0	0	0	0	0	0	0	0	0	0	0	0	0	0	0	0	0	0
1.15	0	0	0	0	0	0	0	0	0	0	0	0	0	0	0	0	0	0
1.16	0	0	0	0	0	0	0	0	0	0	0	0	0	0	0	0	0	0
1.17	0	0	0	0	0	0	0	0	0	0	0	0	0	0	0	0	0	0
1.18	0	0	0	0	0	0	0	0	0	0	0	0	0	0	0	0	0	0
1.19	0	0	0	0	0	0	0	0	0	0	0	0	0	0	0	0	0	0
1.2	0	0	0	0	0	0	0	0	0	-9.55196	25.014	-5.64719	1.24866	0	-0.404024	-0	1.13193	-0
1.21	0	0	0	0	0	0	0	0	0	-35.5072	92.018	-7.39337	1.28201	0	-0.434762	0	-0.969691	0
1.22	0	0	0	0	0	0	0	0	0	-79.2203	273.193	-5.48595	1.291	0	-0.441774	0	-3.67148	0
1.23	0	0	0	0	0	0	0	0	0	-118.068	619.52	3.13186	1.28852	0	-0.437102	0	-6.40952	0
1.24	0	0	0	0	0	0	0	0	0	-142.262	1035.77	12.0879	1.27744	0	-0.433222	0	-8.46321	0
1.25	0	0	0	0	0	0	0	0	0	-174.129	1307.58	10.6646	1.26261	0	-0.433468	0	-9.22306	0
1.26	0	0	0	0	0	0	0	0	0	-214.545	1407.48	0.930235	1.24272	0	-0.435132	0	-8.42149	0
1.27	0	0	0	0	0	0	0	0	0	-248.289	1506.43	-7.09767	1.21469	0	-0.435359	0	-6.15035	0
1.28	0	0	0	0	0	0	0	0	0	-243.236	1666.05	-12.6092	1.18338	0	-0.434164	0	-2.7227	0
1.29	0	0	0	0	0	0	0	0	0	-201.816	1821.27	-20.1616	1.15197	0	-0.43256	-0	1.43417	-0
1.3	0	0	0	0	0	0	0	0	0	-143.345	1918.57	-29.8052	1.11905	0	-0.430768	-0	5.81513	-0
